<svg xmlns="http://www.w3.org/2000/svg" width="256" height="256" viewBox="0 0 100 100"><rect width="100" height="100" rx="20" fill="#202020"></rect><path fill="#fff" d="M72.95 63.14Q71.60 67.19 67.59 71.28Q63.59 75.38 57.52 78.03Q51.44 80.69 44.24 80.69L44.24 80.69Q33.26 80.69 28.13 75.33Q23 69.98 23 61.61L23 61.61Q23 49.73 28.31 40.05Q33.62 30.38 42.62 24.84Q51.62 19.31 62.06 19.31L62.06 19.31Q66.20 19.31 69.62 21.20Q73.04 23.09 75.02 26.64Q77 30.20 77 34.97L77 34.97Q77 37.67 74.97 39.56Q72.95 41.45 69.53 41.45L69.53 41.45Q66.83 41.45 65.88 40.01Q64.94 38.57 64.94 36.32L64.94 36.32L65.03 33.44Q65.03 31.82 63.23 30.29Q61.43 28.76 59.90 28.76L59.90 28.76Q54.86 28.76 48.83 33.30Q42.80 37.85 38.66 45.55Q34.52 53.24 34.52 62.24L34.52 62.24Q34.52 66.38 37.76 68.99Q41 71.60 45.95 71.60L45.95 71.60Q47.57 71.60 50.18 70.52Q52.79 69.44 54.99 67.82Q57.20 66.20 57.92 64.67L57.92 64.67Q59 62.42 60.98 59.63Q62.96 56.84 64.94 56.84L64.94 56.84Q69.53 56.84 71.19 58.82Q72.86 60.80 72.95 63.14L72.95 63.14Z"></path></svg>